HIERARCHY
ROOT hip
{
  OFFSET 0 0 0
  CHANNELS 6 Xposition Yposition Zposition Zrotation Yrotation Xrotation
  JOINT abdomen
  {
    OFFSET 0 20.6881 -0.73152
    CHANNELS 3 Zrotation Xrotation Yrotation
    JOINT chest
    {
      OFFSET 0 11.7043 -0.48768
      CHANNELS 3 Zrotation Xrotation Yrotation
      JOINT neck
      {
        OFFSET 0 22.1894 -2.19456
        CHANNELS 3 Zrotation Xrotation Yrotation
        JOINT head
        {
          OFFSET -0.24384 7.07133 1.2192
          CHANNELS 3 Zrotation Xrotation Yrotation
          JOINT leftEye
          {
            OFFSET 4.14528 8.04674 8.04672
            CHANNELS 3 Zrotation Xrotation Yrotation
            End Site
            {
              OFFSET 1 0 0
            }
          }
          JOINT rightEye
          {
            OFFSET -3.6576 8.04674 8.04672
            CHANNELS 3 Zrotation Xrotation Yrotation
            End Site
            {
              OFFSET 1 0 0
            }
          }
        }
      }
      JOINT rCollar
      {
        OFFSET -2.68224 19.2634 -4.8768
        CHANNELS 3 Zrotation Xrotation Yrotation
        JOINT rShldr
        {
          OFFSET -8.77824 -1.95073 1.46304
          CHANNELS 3 Zrotation Xrotation Yrotation
          JOINT rForeArm
          {
            OFFSET -28.1742 -1.7115 0.48768
            CHANNELS 3 Zrotation Xrotation Yrotation
            JOINT rHand
            {
              OFFSET -22.5879 0.773209 7.07136
              CHANNELS 3 Zrotation Xrotation Yrotation
              JOINT rThumb1
              {
                OFFSET -1.2192 -0.487915 3.41376
                CHANNELS 3 Zrotation Xrotation Yrotation
                JOINT rThumb2
                {
                  OFFSET -3.37035 -0.52449 3.41376
                  CHANNELS 3 Zrotation Xrotation Yrotation
                  End Site
                  {
                    OFFSET -1.78271 -1.18214 1.43049
                  }
                }
              }
              JOINT rIndex1
              {
                OFFSET -7.75947 0.938293 5.60832
                CHANNELS 3 Zrotation Xrotation Yrotation
                JOINT rIndex2
                {
                  OFFSET -2.54057 -0.884171 1.56538
                  CHANNELS 3 Zrotation Xrotation Yrotation
                  End Site
                  {
                    OFFSET -1.62519 -0.234802 1.16502
                  }
                }
              }
              JOINT rMid1
              {
                OFFSET -8.24714 1.18213 3.41376
                CHANNELS 3 Zrotation Xrotation Yrotation
                JOINT rMid2
                {
                  OFFSET -3.10165 -0.590103 1.0647
                  CHANNELS 3 Zrotation Xrotation Yrotation
                  End Site
                  {
                    OFFSET -2.48547 -0.328903 0.83742
                  }
                }
              }
              JOINT rRing1
              {
                OFFSET -8.82822 0.546677 1.51678
                CHANNELS 3 Zrotation Xrotation Yrotation
                JOINT rRing2
                {
                  OFFSET -2.60934 -0.819778 -0.0198488
                  CHANNELS 3 Zrotation Xrotation Yrotation
                  End Site
                  {
                    OFFSET -2.33842 -0.294052 0.168128
                  }
                }
              }
              JOINT rPinky1
              {
                OFFSET -8.27202 -0.0477905 -0.4584
                CHANNELS 3 Zrotation Xrotation Yrotation
                JOINT rPinky2
                {
                  OFFSET -1.82734 -0.647385 -0.700984
                  CHANNELS 3 Zrotation Xrotation Yrotation
                  End Site
                  {
                    OFFSET -1.69225 -0.51767 -0.607171
                  }
                }
              }
            }
          }
        }
      }
      JOINT lCollar
      {
        OFFSET 2.68224 19.2634 -4.8768
        CHANNELS 3 Zrotation Xrotation Yrotation
        JOINT lShldr
        {
          OFFSET 8.77824 -1.95073 1.46304
          CHANNELS 3 Zrotation Xrotation Yrotation
          JOINT lForeArm
          {
            OFFSET 28.1742 -1.7115 0.48768
            CHANNELS 3 Zrotation Xrotation Yrotation
            JOINT lHand
            {
              OFFSET 22.5879 0.773209 7.07136
              CHANNELS 3 Zrotation Xrotation Yrotation
              JOINT lThumb1
              {
                OFFSET 1.2192 -0.487915 3.41376
                CHANNELS 3 Zrotation Xrotation Yrotation
                JOINT lThumb2
                {
                  OFFSET 3.37035 -0.52449 3.41376
                  CHANNELS 3 Zrotation Xrotation Yrotation
                  End Site
                  {
                    OFFSET 1.78271 -1.18214 1.43049
                  }
                }
              }
              JOINT lIndex1
              {
                OFFSET 7.75947 0.938293 5.60832
                CHANNELS 3 Zrotation Xrotation Yrotation
                JOINT lIndex2
                {
                  OFFSET 2.54057 -0.884171 1.56538
                  CHANNELS 3 Zrotation Xrotation Yrotation
                  End Site
                  {
                    OFFSET 1.62519 -0.234802 1.16502
                  }
                }
              }
              JOINT lMid1
              {
                OFFSET 8.24714 1.18213 3.41376
                CHANNELS 3 Zrotation Xrotation Yrotation
                JOINT lMid2
                {
                  OFFSET 3.10165 -0.590103 1.0647
                  CHANNELS 3 Zrotation Xrotation Yrotation
                  End Site
                  {
                    OFFSET 2.48547 -0.328903 0.83742
                  }
                }
              }
              JOINT lRing1
              {
                OFFSET 8.82822 0.546677 1.51678
                CHANNELS 3 Zrotation Xrotation Yrotation
                JOINT lRing2
                {
                  OFFSET 2.60934 -0.819778 -0.0198488
                  CHANNELS 3 Zrotation Xrotation Yrotation
                  End Site
                  {
                    OFFSET 2.33842 -0.294052 0.168128
                  }
                }
              }
              JOINT lPinky1
              {
                OFFSET 8.27202 -0.0477905 -0.4584
                CHANNELS 3 Zrotation Xrotation Yrotation
                JOINT lPinky2
                {
                  OFFSET 1.82734 -0.647385 -0.700984
                  CHANNELS 3 Zrotation Xrotation Yrotation
                  End Site
                  {
                    OFFSET 1.69225 -0.51767 -0.607171
                  }
                }
              }
            }
          }
        }
      }
    }
  }
  JOINT rButtock
  {
    OFFSET -8.77824 4.35084 1.2192
    CHANNELS 3 Zrotation Xrotation Yrotation
    JOINT rThigh
    {
      OFFSET 0 -1.70687 -2.19456
      CHANNELS 3 Zrotation Xrotation Yrotation
      JOINT rShin
      {
        OFFSET 0 -36.8199 0.73152
        CHANNELS 3 Zrotation Xrotation Yrotation
        JOINT rFoot
        {
          OFFSET 0.73152 -45.1104 -5.12064
          CHANNELS 3 Zrotation Xrotation Yrotation
          End Site
          {
            OFFSET -1.1221 -3.69964 12.103
          }
        }
      }
    }
  }
  JOINT lButtock
  {
    OFFSET 8.77824 4.35084 1.2192
    CHANNELS 3 Zrotation Xrotation Yrotation
    JOINT lThigh
    {
      OFFSET 0 -1.70687 -2.19456
      CHANNELS 3 Zrotation Xrotation Yrotation
      JOINT lShin
      {
        OFFSET 0 -36.8199 0.73152
        CHANNELS 3 Zrotation Xrotation Yrotation
        JOINT lFoot
        {
          OFFSET -0.73152 -45.1104 -5.12064
          CHANNELS 3 Zrotation Xrotation Yrotation
          End Site
          {
            OFFSET 1.1221 -3.69964 12.103
          }
        }
      }
    }
  }
}
MOTION
Frames:	6
Frame Time:	0.00833333
54.2187 85.1103 -122.918 0.0 0.0 0.0 0.323375 -0.00164674 0.00924274 0.0892402 -0.00254731 0.0154607 -5.76491e-15 1.59028e-15 1.11816e-16 -1.72523e-14 1.59028e-14 3.43214e-16 -0.0 0.0 0.0 -0.0 0.0 0.0 -2.7844e-15 1.16475e-18 9.93923e-17 -5.92833e-14 -4.34841e-17 2.18663e-15 -1.03711e-12 3.09905e-13 3.49861e-14 -1.18607e-11 -3.0988e-13 2.25819e-13 -2.79806e-11 -4.253e-15 5.69319e-13 -4.83301e-11 -6.36111e-15 9.7484e-13 -2.79774e-11 -6.36111e-15 5.69319e-13 7.73091 5.47488 0.417314 -2.79808e-11 -3.97569e-15 5.66139e-13 2.90554 0.965183 0.102902 -2.79792e-11 -4.17448e-15 5.66934e-13 10.2786 0.731801 0.0259123 -2.79815e-11 -1.59028e-15 5.69319e-13 2.22167 -0.733487 -0.20892 -2.88115e-15 1.16475e-18 0.0 -6.28046e-14 7.45443e-17 -1.98785e-16 -1.03716e-12 -3.107e-13 3.18055e-14 -1.18716e-11 3.05209e-13 2.29e-13 -2.79979e-11 -1.42043e-14 5.59778e-13 -4.83484e-11 -2.54444e-14 9.87562e-13 -2.80036e-11 -1.31198e-14 5.725e-13 -7.73091 5.47488 -0.417314 -2.79975e-11 -1.45113e-14 5.66139e-13 -2.90554 0.965183 -0.102902 -2.8008e-11 -1.42131e-14 5.67729e-13 -10.2786 0.731801 -0.0259123 -2.79931e-11 -1.27222e-14 5.62958e-13 -2.22167 -0.733487 0.20892 -2.03217e-16 0.0 -3.88251e-19 0.740076 -3.92202 -0.060643 -0.00350618 1.55186 -0.0277829 -0.496527 2.36988 0.10483 2.03217e-16 0.0 3.88251e-19 -0.247475 -2.66511 0.0295767 0.00709401 -0.724809 0.0619278 0.49206 3.38958 -0.124986
53.4601 83.6398 -123.84 4.8398 -28.0158 2.2599 -1.51928 3.58072 -1.0626 0.555608 -1.17025 -0.331348 0.314989 3.16285 0.641746 0.00731318 -7.00153 1.25947 -0.0 0.0 0.0 -0.0 0.0 0.0 3.68106e-16 8.83413e-15 1.9731e-15 21.144 6.16452 -0.130121 -3.98822 -1.76835 6.27593 0.0368416 4.26047 0.592809 -4.6414e-10 6.5198e-10 -1.17724e-10 -8.03738e-10 1.1305e-09 -1.97136e-10 -4.64133e-10 6.51979e-10 -1.17727e-10 7.73091 5.47488 0.417314 -4.6414e-10 6.5198e-10 -1.17726e-10 2.90554 0.965183 0.102902 -4.64136e-10 6.5198e-10 -1.17726e-10 10.2786 0.731801 0.0259123 -4.6414e-10 6.51982e-10 -1.17721e-10 2.22167 -0.733487 -0.20892 2.72917e-16 8.83444e-15 1.85895e-15 -17.3755 8.27407 -7.64182 4.12268 -1.85338 -6.46183 -0.0169742 -2.89259 0.404662 -5.15845e-10 -1.05706e-10 1.62883e-10 -8.92816e-10 -1.89354e-10 2.78154e-10 -5.15851e-10 -1.05705e-10 1.62898e-10 -7.73091 5.47488 -0.417314 -5.15845e-10 -1.05707e-10 1.62889e-10 -2.90554 0.965183 -0.102902 -5.15854e-10 -1.05706e-10 1.62889e-10 -10.2786 0.731801 -0.0259123 -5.15841e-10 -1.05704e-10 1.62885e-10 -2.22167 -0.733487 0.20892 -2.03217e-16 0.0 -3.88251e-19 -1.12808 -12.3117 3.1972 -0.00767969 9.48748 0.0875014 -0.852658 1.09855 -4.98503 2.03217e-16 0.0 3.88251e-19 -2.33299 -1.74076 -1.13828 -0.0147748 3.66418 -0.0544936 0.574569 0.659327 1.40257
52.9959 83.7437 -123.102 4.5592 -27.9499 2.5059 -3.32877 7.37205 -2.20188 1.01959 -2.40773 -0.69712 0.597319 6.50474 1.33306 0.362648 -14.4339 2.6666 -0.0 0.0 0.0 -0.0 0.0 0.0 8.19949e-15 1.799e-14 -1.02685e-14 43.5405 12.6678 -0.267505 -7.79145 -3.57082 12.9384 -0.0210645 8.75411 1.22926 -8.99492e-10 1.28859e-09 -2.74832e-10 -1.55831e-09 2.23456e-09 -4.62324e-10 -8.99481e-10 1.28859e-09 -2.74837e-10 7.73091 5.47488 0.417314 -8.99492e-10 1.28859e-09 -2.74832e-10 2.90554 0.965183 0.102902 -8.99486e-10 1.28859e-09 -2.74833e-10 10.2786 0.731801 0.0259123 -8.99492e-10 1.28859e-09 -2.74825e-10 2.22167 -0.733487 -0.20892 8.1045e-15 1.79909e-14 -1.03989e-14 -33.2756 16.5281 -16.2546 8.00503 -3.71631 -13.2778 0.00970277 -5.93767 0.834163 -9.93102e-10 -2.32295e-10 3.14846e-10 -1.71897e-09 -4.14556e-10 5.37552e-10 -9.93107e-10 -2.32293e-10 3.14863e-10 -7.73091 5.47488 -0.417314 -9.93102e-10 -2.32296e-10 3.1485e-10 -2.90554 0.965183 -0.102902 -9.93109e-10 -2.32294e-10 3.14849e-10 -10.2786 0.731801 -0.0259123 -9.93098e-10 -2.32292e-10 3.14845e-10 -2.22167 -0.733487 0.20892 -2.03217e-16 0.0 -3.88251e-19 -1.99618 -21.0738 6.89798 -0.04885 17.9949 0.21983 -1.48067 -0.244553 -10.3917 2.03217e-16 0.0 3.88251e-19 -4.49953 -0.822221 -2.38552 -0.0185664 8.35989 -0.180807 0.822341 -2.25692 3.02304
52.5532 83.8657 -122.348 4.4932 -28.2018 2.722 -4.79666 10.7304 -3.25707 1.44587 -3.50515 -1.02668 0.729951 9.48374 1.94895 1.00027 -20.9625 4.01647 -0.0 0.0 0.0 -0.0 0.0 0.0 6.67311e-15 2.65001e-14 5.7205e-15 63.52 18.4932 -0.409238 -10.8219 -5.05095 18.8949 -0.159629 12.7759 1.81855 -1.33646e-09 1.95595e-09 -3.54311e-10 -2.31456e-09 3.3915e-09 -5.93358e-10 -1.33644e-09 1.95595e-09 -3.54319e-10 7.73091 5.47488 0.417314 -1.33646e-09 1.95595e-09 -3.54309e-10 2.90554 0.965183 0.102902 -1.33645e-09 1.95595e-09 -3.54311e-10 10.2786 0.731801 0.0259123 -1.33646e-09 1.95595e-09 -3.54301e-10 2.22167 -0.733487 -0.20892 6.58106e-15 2.6501e-14 5.57684e-15 -45.2308 22.9874 -24.7676 11.136 -5.27784 -19.4611 0.0728522 -8.67603 1.22648 -1.49154e-09 -3.17091e-10 4.8753e-10 -2.58175e-09 -5.68012e-10 8.32487e-10 -1.49154e-09 -3.17089e-10 4.87549e-10 -7.73091 5.47488 -0.417314 -1.49154e-09 -3.17093e-10 4.87533e-10 -2.90554 0.965183 -0.102902 -1.49155e-09 -3.17091e-10 4.87531e-10 -10.2786 0.731801 -0.0259123 -1.49154e-09 -3.17088e-10 4.87528e-10 -2.22167 -0.733487 0.20892 -2.03217e-16 0.0 -3.88251e-19 -1.66565 -28.7103 10.8374 -0.12029 25.3583 0.347989 -2.23554 -1.38177 -15.1663 2.03217e-16 0.0 3.88251e-19 -6.39103 0.106703 -3.47234 -0.00407294 12.442 -0.293895 1.17672 -4.78605 4.4726
52.1041 83.9301 -121.661 4.5527 -28.8325 2.8776 -5.69751 13.0201 -4.05392 1.80785 -4.25294 -1.26407 0.644374 11.5603 2.35316 1.60801 -25.2741 4.98528 -0.0 0.0 0.0 -0.0 0.0 0.0 -1.82477e-14 3.33958e-14 9.22858e-14 77.3995 22.624 -0.545947 -12.7248 -5.97011 23.0218 -0.309038 15.6232 2.25236 -1.77746e-09 2.70019e-09 -2.39718e-10 -3.07501e-09 4.68062e-09 -3.89011e-10 -1.77744e-09 2.70019e-09 -2.39728e-10 7.73091 5.47488 0.417314 -1.77746e-09 2.70019e-09 -2.39715e-10 2.90554 0.965183 0.102902 -1.77745e-09 2.70019e-09 -2.39718e-10 10.2786 0.731801 0.0259123 -1.77746e-09 2.70019e-09 -2.39706e-10 2.22167 -0.733487 -0.20892 -1.83299e-14 3.33954e-14 9.21367e-14 -52.3434 26.7273 -31.2415 13.2186 -6.34087 -23.9948 0.141141 -10.6492 1.5143 -2.04293e-09 -2.97409e-10 7.12018e-10 -3.53613e-09 -5.42103e-10 1.21626e-09 -2.04293e-09 -2.97407e-10 7.12037e-10 -7.73091 5.47488 -0.417314 -2.04293e-09 -2.9741e-10 7.12021e-10 -2.90554 0.965183 -0.102902 -2.04293e-09 -2.97409e-10 7.12018e-10 -10.2786 0.731801 -0.0259123 -2.04292e-09 -2.97406e-10 7.12015e-10 -2.22167 -0.733487 0.20892 -2.03217e-16 0.0 -3.88251e-19 -0.607536 -33.8531 14.3944 -0.18425 29.862 0.43399 -2.8214 -2.08223 -18.3516 2.03217e-16 0.0 3.88251e-19 -7.66584 1.06309 -4.15895 0.0150296 14.9903 -0.36658 1.47872 -6.36464 5.47227
51.6786 83.9913 -121.087 4.6507 -29.0128 3.088 -5.92026 13.8161 -4.46656 2.1185 -4.51793 -1.37273 0.284008 12.381 2.42426 1.78246 -26.4291 5.19552 -0.0 0.0 0.0 -0.0 0.0 0.0 -8.06571e-14 4.46663e-14 2.96591e-13 82.6904 24.3813 -0.655885 -13.3838 -6.27018 24.5452 -0.385212 16.8528 2.44465 -2.24989e-09 3.64306e-09 1.17027e-10 -3.88623e-09 6.31204e-09 2.34174e-10 -2.24988e-09 3.64306e-09 1.17016e-10 7.73091 5.47488 0.417314 -2.24989e-09 3.64306e-09 1.1703e-10 2.90554 0.965183 0.102902 -2.24988e-09 3.64306e-09 1.17028e-10 10.2786 0.731801 0.0259123 -2.24989e-09 3.64306e-09 1.1704e-10 2.22167 -0.733487 -0.20892 -8.07156e-14 4.4662e-14 2.96454e-13 -54.9792 27.9602 -33.7806 14.1906 -6.88782 -26.1952 0.176536 -11.519 1.64277 -2.70644e-09 -1.2435e-10 1.03213e-09 -4.68427e-09 -2.52851e-10 1.76419e-09 -2.70645e-09 -1.24349e-10 1.03215e-09 -7.73091 5.47488 -0.417314 -2.70644e-09 -1.24349e-10 1.03214e-09 -2.90554 0.965183 -0.102902 -2.70645e-09 -1.24351e-10 1.03213e-09 -10.2786 0.731801 -0.0259123 -2.70644e-09 -1.24348e-10 1.03213e-09 -2.22167 -0.733487 0.20892 -2.03217e-16 0.0 -3.88251e-19 0.237161 -35.7609 16.7663 -0.193826 30.2561 0.432571 -2.93566 -2.15014 -19.3257 2.03217e-16 0.0 3.88251e-19 -8.10054 2.01746 -4.28151 0.0228669 15.4277 -0.376406 1.57161 -6.63986 5.83811
